HIERARCHY
ROOT root
{
	OFFSET 0.000000 0.000000 0.000000
	CHANNELS 6 Xposition Yposition Zposition Zrotation Yrotation Xrotation
	JOINT lhip
	{
		OFFSET 0.058581 -0.082280 -0.017664
		CHANNELS 3 Zrotation Yrotation Xrotation
		JOINT lknee
		{
			OFFSET 0.043451 -0.386469 0.008037
			CHANNELS 3 Zrotation Yrotation Xrotation
			JOINT lankle
			{
				OFFSET -0.014790 -0.426874 -0.037428
				CHANNELS 3 Zrotation Yrotation Xrotation
				JOINT ltoe
				{
					OFFSET 0.041054 -0.060286 0.122042
					CHANNELS 3 Zrotation Yrotation Xrotation
					End Site
					{
						OFFSET 0.000000 0.000000 0.000000
					}
				}
			}
		}
	}
	JOINT rhip
	{
		OFFSET -0.060310 -0.090513 -0.013543
		CHANNELS 3 Zrotation Yrotation Xrotation
		JOINT rknee
		{
			OFFSET -0.043257 -0.383688 -0.004843
			CHANNELS 3 Zrotation Yrotation Xrotation
			JOINT rankle
			{
				OFFSET 0.019056 -0.420046 -0.034562
				CHANNELS 3 Zrotation Yrotation Xrotation
				JOINT rtoe
				{
					OFFSET -0.034840 -0.062106 0.130323
					CHANNELS 3 Zrotation Yrotation Xrotation
					End Site
					{
						OFFSET 0.000000 0.000000 0.000000
					}
				}
			}
		}
	}
	JOINT lowerback
	{
		OFFSET 0.004439 0.124404 -0.038385
		CHANNELS 3 Zrotation Yrotation Xrotation
		JOINT upperback
		{
			OFFSET 0.004488 0.137956 0.026820
			CHANNELS 3 Zrotation Yrotation Xrotation
			JOINT chest
			{
				OFFSET -0.002265 0.056032 0.002855
				CHANNELS 3 Zrotation Yrotation Xrotation
				JOINT lowerneck
				{
					OFFSET -0.013390 0.211636 -0.033468
					CHANNELS 3 Zrotation Yrotation Xrotation
					JOINT upperneck
					{
						OFFSET 0.010113 0.088937 0.050410
						CHANNELS 3 Zrotation Yrotation Xrotation
						End Site
						{
							OFFSET 0.000000 0.000000 0.000000
						}
					}
				}
				JOINT lclavicle
				{
					OFFSET 0.071702 0.114000 -0.018898
					CHANNELS 3 Zrotation Yrotation Xrotation
					JOINT lshoulder
					{
						OFFSET 0.122921 0.045205 -0.019046
						CHANNELS 3 Zrotation Yrotation Xrotation
						JOINT lelbow
						{
							OFFSET 0.255332 -0.015649 -0.022946
							CHANNELS 3 Zrotation Yrotation Xrotation
							JOINT lwrist
							{
								OFFSET 0.265709 0.012698 -0.007375
								CHANNELS 3 Zrotation Yrotation Xrotation
								End Site
								{
									OFFSET 0.000000 0.000000 0.000000
								}
							}
						}
					}
				}
				JOINT rclavicle
				{
					OFFSET -0.082954 0.112472 -0.023707
					CHANNELS 3 Zrotation Yrotation Xrotation
					JOINT rshoulder
					{
						OFFSET -0.113228 0.046853 -0.008472
						CHANNELS 3 Zrotation Yrotation Xrotation
						JOINT relbow
						{
							OFFSET -0.260127 -0.014369 -0.031269
							CHANNELS 3 Zrotation Yrotation Xrotation
							JOINT rwrist
							{
								OFFSET -0.269108 0.006794 -0.006027
								CHANNELS 3 Zrotation Yrotation Xrotation
								End Site
								{
									OFFSET 0.000000 0.000000 0.000000
								}
							}
						}
					}
				}
			}
		}
	}
}
MOTION
Frames: 17
Frame Time: 0.033333
1.219116 0.788273 0.812094 -87.007195 2.007602 99.839949 9.410879 -7.844969 -55.216146 -9.501511 4.715518 74.094433 6.694079 16.915382 -37.225562 0.000000 -0.000000 0.000000 -3.014878 6.541714 -54.720035 2.147816 -7.431524 74.616640 3.189185 -13.982744 -36.606093 0.000000 -0.000000 0.000000 -2.604844 -0.014357 31.697529 4.230157 -0.265987 -6.347746 1.292868 -1.955891 4.688934 -1.947935 -5.132515 -7.449683 -2.355776 -8.088604 -14.044151 -20.217164 10.093563 7.967332 -47.203265 5.217307 7.575546 -1.782208 -41.477105 20.054743 4.183996 -5.140621 -12.137746 20.667243 -7.206176 5.584456 51.989501 -8.784005 6.714678 -9.219792 24.868702 3.654693 2.478266 3.263950 -5.593322 
1.221002 0.788137 0.778395 -89.019972 1.683552 99.707268 9.969670 -6.349310 -59.201761 -8.289701 7.431396 81.165859 7.084278 17.166585 -39.864990 0.000000 -0.000000 0.000000 -3.890055 7.431317 -58.991682 1.481806 -7.684992 81.515564 2.833651 -13.579233 -39.066597 0.000000 -0.000000 0.000000 -3.495430 0.957691 34.570475 3.753606 0.596062 -7.419938 1.215214 -1.760561 4.323029 -1.847684 -4.690297 -8.754805 -2.570529 -8.303034 -13.550344 -21.444034 9.583298 6.869053 -47.699783 4.820907 7.082256 0.115851 -40.957458 17.519327 5.854581 -4.896929 -11.607134 21.403264 -6.409172 5.768984 52.710741 -8.553856 6.869811 -10.021448 25.333972 3.194370 1.975376 3.139229 -6.256253 
1.223112 0.787263 0.745787 -88.581380 1.706324 100.020447 11.505848 -6.672137 -64.113874 -8.042069 9.420996 87.590767 6.994624 17.165103 -41.792862 0.000000 -0.000000 0.000000 -5.311957 6.869965 -63.417642 1.103809 -9.199517 87.928200 3.384022 -13.110450 -41.303916 0.000000 -0.000000 0.000000 -3.038519 0.061590 36.709926 3.408783 0.620499 -8.948649 0.672438 -1.677759 4.630436 -2.004467 -4.295020 -9.801522 -2.744310 -8.396489 -12.577979 -22.977230 8.431377 6.507378 -48.957157 2.674125 6.537851 4.143816 -39.887018 13.176286 7.102128 -4.645830 -11.301658 22.123679 -4.832134 6.098580 53.477536 -6.564707 7.406362 -10.715594 25.556164 3.293901 1.808306 3.141444 -6.453934 
1.224232 0.786780 0.720886 -88.240705 1.519358 99.784277 12.154883 -6.855494 -67.091812 -7.511123 10.619725 92.233250 7.065488 17.210198 -43.732183 0.000000 -0.000000 0.000000 -6.314932 6.316276 -66.016271 0.676443 -9.935287 92.746506 3.702118 -12.706941 -43.202492 0.000000 -0.000000 0.000000 -2.983900 -0.192774 39.001896 3.147096 0.669694 -9.899156 0.363274 -1.796719 4.471227 -1.470293 -3.957132 -11.604428 -3.192705 -8.712272 -11.593006 -24.774065 6.313878 5.394896 -49.683440 -0.379067 6.498883 7.145496 -38.049173 8.948605 9.564176 -4.422006 -11.412151 23.626806 -2.426332 5.662875 53.178921 -3.720604 8.771043 -11.272931 26.278838 2.495730 0.415393 3.244094 -6.472459 
1.219405 0.787206 0.707166 -88.108545 1.717518 99.136921 12.429995 -6.659080 -67.393088 -7.304502 10.862424 94.616611 6.483045 16.711789 -45.038562 0.000000 -0.000000 0.000000 -5.867732 6.168886 -66.312387 0.176612 -9.676615 95.417283 4.090300 -12.547737 -44.512366 0.000000 -0.000000 0.000000 -2.961262 0.107600 39.914272 2.679389 0.775145 -9.235388 0.550453 -1.136438 4.591890 -1.352967 10.672920 -22.065285 0.717041 1.042245 -13.768987 -28.302199 0.734977 2.651806 -47.362135 -1.647204 8.012144 9.542553 -37.069322 2.919509 12.153299 -5.447387 -10.539702 28.091126 0.897733 3.718899 49.018206 -0.792456 11.198818 -11.568423 27.381392 0.877770 -0.777300 4.220128 -6.554518 
1.215351 0.787659 0.700890 -87.022218 1.857542 97.969728 12.050767 -7.627493 -66.437838 -7.572669 10.373152 95.439369 6.514558 16.986180 -45.436816 0.000000 -0.000000 0.000000 -5.888102 5.751270 -65.187639 -0.207890 -9.900355 96.677587 4.511082 -12.818016 -45.135340 0.000000 -0.000000 0.000000 -2.795034 -0.139359 40.852165 2.777110 0.242020 -9.697779 0.666797 -0.991168 4.692099 -0.452330 9.240868 -22.212964 0.216127 -0.770362 -11.849697 -28.272848 -2.808718 2.738992 -46.807943 -4.571217 8.748013 9.569484 -39.001860 1.139100 12.473042 -5.537186 -11.818276 28.273362 5.482469 3.865155 47.824392 4.360760 12.083640 -11.668144 29.128539 -0.332071 -1.217035 4.647221 -5.455744 
1.208621 0.788105 0.708124 -86.355492 1.760917 96.514224 10.757134 -8.656676 -63.132553 -7.421786 9.055659 94.092514 6.199628 16.855180 -45.747335 0.000000 -0.000000 0.000000 -5.027812 5.684167 -62.261979 -0.847845 -9.036800 95.783221 4.952648 -13.033848 -45.020296 0.000000 -0.000000 0.000000 -3.133429 0.282084 40.620355 2.616485 -0.094156 -9.186727 0.801832 -0.646812 4.312660 -1.335315 10.903464 -22.459120 0.508988 -0.077868 -13.609426 -25.782600 -4.905481 1.161990 -45.815566 -6.195175 10.413348 6.574821 -45.767859 5.934206 9.887306 -5.981893 -12.635539 27.336547 9.062832 2.075533 47.224238 9.603459 12.840054 -13.113513 33.177976 -0.792426 1.039314 4.513523 -3.964485 
1.198921 0.788702 0.729754 -85.944483 1.819735 95.346944 8.700244 -9.009837 -57.926299 -7.881340 6.486611 90.231948 5.821468 16.961445 -45.166851 0.000000 -0.000000 0.000000 -3.206707 5.626392 -57.464660 -1.029150 -7.598642 91.885236 5.178924 -13.710717 -43.799479 0.000000 -0.000000 0.000000 -3.161311 0.967905 38.560663 2.163968 0.300190 -9.086504 0.544490 0.476190 4.707979 -1.031641 11.663945 -22.177347 -0.102715 -1.422970 -10.057375 -22.025433 -6.423358 -0.724423 -42.755211 -7.352124 12.332573 0.034720 -55.806270 14.581586 8.770076 -7.294629 -12.083859 24.356602 11.592353 -0.328737 46.866515 12.631298 13.770039 -17.059209 42.165907 -4.853706 1.812821 4.927879 -6.564514 
1.184301 0.789131 0.765696 -84.992806 1.947576 93.850759 6.451860 -9.018061 -50.603529 -8.427465 3.399420 83.508419 5.086477 16.710387 -42.122896 0.000000 -0.000000 0.000000 -1.142890 4.546024 -50.647163 -0.819442 -6.552781 85.272967 5.470256 -14.806795 -41.515969 0.000000 -0.000000 0.000000 -2.372194 2.244551 35.247527 1.679583 1.106811 -8.436571 0.231644 1.176748 5.445450 -1.736118 11.759782 -21.911202 0.176445 -2.227185 -7.165062 -16.925806 -8.075033 -2.631825 -39.392257 -8.476343 13.706038 -9.385040 -65.605710 24.171068 10.527894 -8.766818 -12.934622 20.010278 12.941261 -3.506617 43.468907 13.627537 13.928459 -23.525958 54.442800 -10.795522 0.191506 6.544466 -7.010370 
1.164110 0.789033 0.818042 -82.655667 1.985672 92.751576 4.167107 -8.665747 -41.792204 -9.405366 -0.330031 73.570911 4.461871 15.798592 -35.726029 0.000000 -0.000000 0.000000 0.674864 1.934581 -42.371800 -0.360411 -5.242786 75.354575 5.379804 -15.741654 -35.703007 0.000000 -0.000000 0.000000 -1.370924 3.397766 30.252699 1.437958 1.715090 -7.803518 0.173856 1.273038 6.514435 -2.053402 11.231780 -21.700140 0.507787 -2.383125 -3.700113 -11.602340 -8.548443 -4.161746 -37.047725 -9.147223 14.710153 -22.674944 -73.186925 38.361525 10.943303 -9.816013 -14.484501 14.431166 12.335977 -7.181591 39.199068 12.811824 14.146429 -34.077880 65.388807 -20.127364 0.085737 7.393427 -7.047151 
1.140472 0.788396 0.888790 -79.734022 2.005649 91.427753 2.490905 -7.883131 -30.504007 -10.078553 -5.100839 59.379563 2.585975 13.623044 -25.746187 0.000000 -0.000000 0.000000 1.283897 -0.666265 -32.207042 0.607280 -4.158251 62.088052 5.670674 -14.925534 -25.238683 0.000000 -0.000000 0.000000 -0.842141 4.471758 23.566147 1.343344 2.331553 -5.333212 0.048141 1.557720 7.663885 -1.707439 11.041392 -21.066718 0.227041 -2.968676 -0.608627 -7.733709 -6.856619 -6.662154 -36.636406 -11.403863 15.833346 -36.729832 -75.349270 54.506931 7.992943 -12.356427 -13.174176 10.134813 9.613562 -10.256167 35.842654 11.425284 14.900537 -43.794563 71.292685 -29.689633 0.770832 9.407912 -8.931892 
1.116828 0.784107 0.980790 -76.005814 1.906021 91.086196 2.455773 -8.123535 -17.380036 -9.286330 -10.117237 38.017141 -1.630838 10.277220 -8.153753 0.000000 -0.000000 0.000000 0.327554 -2.230148 -20.763926 1.242008 -4.868426 42.737804 6.077641 -13.296807 -6.665071 0.000000 -0.000000 0.000000 -1.124288 5.451195 16.028876 1.416710 2.848814 -2.216594 0.087471 1.272418 7.835216 -1.591869 10.635618 -20.080088 0.598027 -2.868550 1.934477 -8.005227 -4.625048 -7.621355 -39.246670 -13.484911 18.355614 -30.994753 -75.129911 48.416715 5.745798 -13.701994 -12.648860 10.936435 5.951004 -11.423176 35.089085 9.313583 17.282538 -39.778976 71.771479 -26.380395 2.428272 10.403028 -8.680502 
1.097044 0.775489 1.085928 -69.522984 0.858903 91.692028 2.050186 -10.127725 -4.574951 -2.603611 -12.397686 8.264770 -13.800399 9.486303 25.356594 0.000000 -0.000000 0.000000 -1.115750 -2.056107 -8.596226 -0.478581 -8.689651 16.877272 9.174258 -13.844842 25.134719 0.000000 -0.000000 0.000000 -2.375016 5.692648 7.912666 1.565394 1.669094 1.862996 0.054913 0.385537 8.855721 -1.886651 10.818296 -21.399897 1.347046 -3.932691 4.621471 -12.400559 -2.709028 -10.301933 -42.760101 -14.476082 26.710181 -4.940450 -72.928814 18.929370 5.160590 -13.365808 -9.380125 15.168310 4.000412 -15.529993 35.582628 5.834965 26.817486 -28.919329 65.886370 -18.843719 -1.269545 7.353709 -3.067315 
1.084267 0.764129 1.181100 -60.986637 -0.345580 94.506162 1.219263 -5.097426 -4.080104 -1.756832 -4.925749 -3.120319 -17.609158 10.827500 30.646485 0.000000 -0.000000 0.000000 -2.400273 -4.947371 -4.555266 1.255811 -11.368346 1.833613 8.917672 -15.111333 39.714983 0.000000 -0.000000 0.000000 -2.965213 3.862157 0.190783 1.189449 -0.627395 3.802927 -0.610673 0.027510 9.229066 -1.774627 9.150248 -20.348241 1.985588 -2.748885 5.613525 -17.928620 -1.155599 -9.429637 -43.628393 -14.806070 27.376504 -2.889658 -69.314029 16.076951 3.605707 -13.815857 -4.759261 21.509910 1.684959 -12.659390 34.505424 5.753985 27.733309 -16.002993 60.753080 -6.785392 0.559375 6.941121 1.067987 
1.085423 0.758319 1.258976 -52.735789 -0.887788 94.624908 1.015175 -7.964870 -5.648767 -2.877018 -0.879726 2.562734 -12.528324 13.560218 32.784985 0.000000 -0.000000 0.000000 -3.152301 -3.993963 -6.266186 1.899720 -11.304161 8.759562 5.071317 -16.372450 39.596448 0.000000 -0.000000 0.000000 -2.516412 2.929321 -0.355561 1.665384 -1.346205 4.441439 -1.447449 -1.066844 8.685865 -2.143403 8.087262 -19.550153 2.394640 -1.799360 5.834588 -23.027795 -1.795769 -8.662367 -43.062231 -16.826009 28.629792 -3.230653 -65.844581 15.148593 3.199769 -13.958022 -3.584188 27.433677 0.339872 -12.063714 31.529863 3.822681 29.016110 -12.321700 57.498855 -4.785829 0.703668 6.893545 1.127474 
1.085073 0.754264 1.327271 -46.356976 -0.309804 89.984821 0.810098 -6.975670 -3.809564 -3.555424 -3.854693 13.185564 -11.420361 13.598049 29.963530 0.000000 -0.000000 0.000000 -2.035706 -2.664552 -5.421556 0.788604 -7.145395 19.972114 7.203203 -12.561632 35.738500 0.000000 -0.000000 0.000000 -0.984379 2.961882 6.388340 1.805225 -0.718435 3.192186 -1.637497 -1.611628 7.742216 -3.281878 7.862563 -19.143744 3.141899 -1.508084 5.860367 -24.423958 -4.480969 -8.938188 -45.753830 -16.632831 29.087488 -2.195928 -61.046595 14.933861 1.104757 -12.881770 -3.166905 29.334007 0.561106 -13.347027 32.674204 -1.230260 27.919977 -11.210702 54.559567 -5.178306 1.119583 6.969729 -0.203304 
1.080171 0.748192 1.381831 -40.375479 -0.472261 87.432607 0.859978 -6.964597 -2.425893 -4.414838 -6.167081 18.993281 -10.893565 11.774076 28.270282 0.000000 -0.000000 0.000000 -1.327666 -1.684293 -4.429655 0.277188 -2.151699 24.060381 6.735234 -9.069723 34.170914 0.000000 -0.000000 0.000000 -1.685005 2.898176 7.136656 2.211412 -1.526209 5.507998 -1.045430 -1.806061 8.095473 -4.094738 7.695810 -18.277217 4.388339 -1.133900 5.095399 -24.443118 -5.858470 -7.813710 -49.752165 -16.613185 26.933723 1.679897 -56.717570 11.633466 1.894324 -12.075116 -1.817922 28.448939 0.509009 -10.336480 37.108940 -2.325350 24.887258 -12.009352 51.707862 -7.255183 -0.245195 4.657248 -6.108611 
